<?xml version="1.0" encoding="UTF-8"?> <svg xmlns="http://www.w3.org/2000/svg" width="1484" height="212" viewBox="0 0 1484 212" fill="none"> <path d="M0.0792847 52.1618H45.4584V208.875H0.0792847V52.1618Z" fill="black"></path> <path d="M247.547 118.958V208.589H202.168V125.723C202.168 100.356 190.33 88.5177 170.318 88.5177C148.615 88.5177 132.831 102.047 132.831 130.515V208.025H87.7341V51.3125H130.858V69.6332C142.978 56.1041 161.581 48.7758 182.72 48.7758C219.925 49.6213 247.547 71.3244 247.547 118.958Z" fill="black"></path> <path d="M450.484 118.958V208.589H405.105V125.723C405.105 100.356 393.267 88.5177 373.255 88.5177C351.27 88.5177 335.768 102.047 335.768 130.515V208.025H290.389V51.3125H333.513V69.6332C345.633 56.1041 364.236 48.7758 385.375 48.7758C422.58 49.6213 450.484 71.3244 450.484 118.958Z" fill="black"></path> <path d="M491.921 130.518C491.921 83.1658 528.281 49.6247 577.888 49.6247C627.777 49.6247 663.573 83.1658 663.573 130.518C663.573 177.87 627.777 211.411 577.888 211.411C528.563 211.129 491.921 177.588 491.921 130.518ZM617.912 130.518C617.912 103.46 600.719 87.3936 577.888 87.3936C555.058 87.3936 537.864 103.741 537.864 130.518C537.864 157.294 555.339 173.642 577.888 173.642C601 173.642 617.912 157.294 617.912 130.518Z" fill="black"></path> <path d="M957.833 52.1618L901.179 208.875H857.491L822.541 111.916L786.181 208.875H742.493L686.122 52.1618H728.964L766.169 158.14L804.502 52.1618H842.835L880.04 158.14L918.091 52.1618H957.833V52.1618Z" fill="black"></path> <path d="M992.502 52.1618H1037.88V208.875H992.502V52.1618Z" fill="black"></path> <path d="M1075.09 193.936L1090.31 161.24C1104.12 170.26 1125.26 176.461 1144.42 176.461C1165.28 176.461 1173.46 170.824 1173.46 162.086C1173.46 136.437 1078.75 162.368 1078.75 100.077C1078.75 70.2003 1105.81 49.6247 1151.47 49.6247C1173.17 49.6247 1196.85 54.4163 1211.79 63.4357L1196.57 95.5675C1181.07 87.1118 1165.56 83.7295 1151.19 83.7295C1130.89 83.7295 1122.16 90.2122 1122.16 98.3861C1122.16 125.444 1216.86 99.2317 1216.86 160.677C1216.86 189.708 1189.8 210.565 1143.01 210.565C1116.8 211.129 1090.03 203.801 1075.09 193.936Z" fill="black"></path> <path d="M1410.78 142.916H1292.4C1296.91 162.364 1313.26 174.202 1337.22 174.202C1353.85 174.202 1365.69 169.411 1376.4 158.982L1400.35 185.195C1385.7 201.824 1363.99 210.562 1335.81 210.562C1281.69 210.562 1246.46 176.739 1246.46 129.669C1246.46 82.8805 1282.26 48.7758 1330.17 48.7758C1376.4 48.7758 1411.63 79.7801 1411.63 129.951C1411.63 134.461 1410.78 139.252 1410.78 142.916ZM1291.84 116.422H1368.79C1365.4 96.4097 1350.75 83.7261 1330.45 83.7261C1309.6 84.2898 1294.94 96.4097 1291.84 116.422Z" fill="black"></path> <path d="M1457.85 51.5974C1472.01 51.5974 1483.5 40.1139 1483.5 25.9483C1483.5 11.7827 1472.01 0.299255 1457.85 0.299255C1443.68 0.299255 1432.2 11.7827 1432.2 25.9483C1432.2 40.1139 1443.68 51.5974 1457.85 51.5974Z" fill="#C32D2C"></path> </svg> 